<svg width="500.000000pt" height="199.000000pt" viewBox="0 0 500.000000 199.000000" xmlns="http://www.w3.org/2000/svg">
  <g transform="translate(0.000000,199.000000) scale(0.100000,-0.100000)" fill="rgba(254,254,254,0)" stroke="none">
    <path d="M0 995 l0 -995 2500 0 2500 0 0 995 0 995 -2500 0 -2500 0 0 -995z
m470 811 c0 -7 -141 -661 -146 -678 l-5 -18 -110 0 -109 0 0 13 c0 21 139 667
145 678 l6 9 110 0 c60 0 109 -2 109 -4z m413 -38 c4 -24 12 -112 18 -195 l13
-153 11 0 c7 0 51 73 99 163 47 89 95 177 106 195 l20 32 130 0 130 0 0 -12
c0 -7 -32 -165 -71 -350 l-72 -338 -118 0 -118 0 4 13 c6 18 85 396 85 407 0
6 -6 10 -14 10 l-14 0 -118 -215 -117 -215 -72 0 -71 0 -18 178 c-9 97 -20
201 -23 230 l-6 52 -12 0 -11 0 -49 -230 -49 -230 -44 0 -44 0 5 23 c4 12 36
162 72 332 36 171 68 318 71 328 l5 17 134 0 133 0 5 -42z m1083 18 c51 -16
81 -40 105 -86 l13 -25 0 -62 0 -62 -30 -58 -29 -58 -48 -32 c-62 -42 -102
-53 -209 -60 l-87 -6 -17 -76 c-9 -42 -20 -93 -25 -113 l-10 -38 -109 0 -110
0 0 13 c0 22 139 667 146 679 l7 11 176 -6 176 -6 51 -15z m708 -3 c-3 -16 -7
-34 -10 -40 l-3 -13 -114 0 -114 0 -21 -103 c-12 -57 -22 -109 -22 -115 l0
-11 93 -3 93 -3 -8 -32 -9 -33 -94 0 -95 0 -5 -22 c-20 -90 -45 -210 -45 -218
l0 -10 110 0 110 0 0 -19 c0 -11 -3 -26 -6 -35 l-6 -16 -224 0 -224 0 0 13 c0
21 139 667 145 678 l6 9 225 0 224 0 -6 -27z m553 -5 c79 -39 106 -101 83
-186 l-11 -43 -35 -38 c-19 -21 -48 -44 -64 -51 l-30 -12 0 -23 c0 -13 25 -87
55 -165 30 -78 55 -143 55 -146 0 -2 -52 -4 -115 -4 l-114 0 -47 150 -48 151
-15 -3 -15 -3 -30 -148 -30 -147 -113 0 c-62 0 -113 3 -113 8 0 11 140 665
145 681 l6 14 195 -6 195 -5 46 -24z m493 25 c0 -5 -32 -162 -72 -350 l-73
-343 -112 0 c-62 0 -113 3 -113 8 0 11 139 665 145 680 l4 12 111 0 c60 0 110
-3 110 -7z m520 2 c0 -3 16 -149 35 -325 19 -176 35 -331 35 -345 l0 -26 -122
3 -123 3 -3 40 c-1 22 -5 59 -8 83 l-5 43 -111 -3 -110 -3 -37 -82 -36 -83
-42 0 c-24 0 -43 3 -43 7 0 6 276 604 307 666 l14 27 124 0 c69 0 125 -2 125
-5z m520 -5 c0 -5 -27 -136 -60 -290 -33 -154 -60 -289 -60 -300 l0 -20 110 0
110 0 -6 -27 c-3 -16 -7 -34 -10 -40 l-3 -13 -226 0 c-124 0 -225 3 -225 8 0
11 139 665 145 680 l4 12 111 0 110 0 0 -10z m-292 -927 l-3 -38 -1965 0
-1965 0 -3 38 -3 37 1971 0 1971 0 -3 -37z m-1618 -488 l0 -195 -15 0 -15 0 0
195 0 195 15 0 15 0 0 -195z m-2500 165 l0 -10 -110 0 -110 0 0 -75 0 -74 95
-3 95 -3 0 -10 0 -10 -95 -3 -95 -3 0 -74 0 -75 115 0 115 0 0 -10 0 -10 -130
0 -130 0 0 185 0 185 125 0 125 0 0 -10z m1500 -55 l0 -35 46 0 45 0 -6 -10
c-3 -5 -24 -10 -46 -10 l-40 0 3 -112 3 -113 50 -5 50 -6 -29 -12 -30 -13 -28
12 c-42 17 -48 36 -48 148 l0 101 -25 0 c-14 0 -25 5 -25 10 0 6 11 10 25 10
l25 0 0 35 0 35 15 0 15 0 0 -35z m-743 -51 c30 -19 51 -52 59 -92 l7 -32
-123 0 -122 0 6 -32 c3 -18 17 -43 32 -55 l25 -23 52 0 53 0 21 15 22 15 6
-10 6 -10 -46 -21 -46 -20 -32 6 c-156 34 -168 231 -18 275 31 9 67 3 98 -16z
m451 -1 c13 -8 30 -30 38 -48 l14 -34 0 -86 0 -85 -15 0 -15 0 0 99 0 98 -21
27 -20 26 -49 0 -49 0 -28 -24 -28 -24 -3 -101 -4 -101 -14 0 -14 0 0 135 0
135 15 0 c8 0 15 -7 15 -15 0 -19 19 -19 45 -1 40 27 88 27 133 -1z m1013 1
c106 -53 81 -218 -38 -254 l-41 -13 -44 22 c-60 29 -58 30 -58 -49 l0 -70 -15
0 -15 0 0 190 0 190 10 0 c6 0 10 -9 10 -20 l0 -20 14 0 c7 0 19 7 26 15 28
33 95 37 151 9z m616 16 c8 0 28 -13 44 -29 l29 -29 0 -106 0 -106 -10 0 c-5
0 -10 7 -10 15 0 20 -5 19 -58 -6 l-44 -22 -39 12 c-67 20 -86 70 -46 117 l23
27 77 5 77 5 0 32 0 32 -19 17 -20 18 -53 -4 c-29 -2 -61 -8 -70 -12 l-18 -8
0 10 c0 16 82 43 108 36 8 -2 20 -4 29 -4z m485 -12 c10 -5 25 -22 33 -38 l15
-29 0 -96 0 -95 -15 0 -15 0 0 105 0 105 -20 20 -20 20 -50 0 -51 0 -24 -25
-25 -24 0 -101 0 -100 -15 0 -15 0 0 135 0 135 10 0 c6 0 10 -9 10 -20 l0 -20
14 0 c7 0 19 7 26 15 26 31 95 38 142 13z m465 -4 c36 -23 46 -53 51 -156 l5
-98 -16 0 -15 0 -4 106 -3 106 -24 19 -23 19 -47 0 c-49 -1 -71 -12 -89 -47
l-12 -22 0 -90 0 -91 -15 0 -15 0 0 135 0 135 15 0 c8 0 15 -7 15 -15 0 -17
25 -20 35 -5 18 29 99 31 142 4z m430 0 c30 -19 51 -52 59 -92 l7 -32 -123 0
-122 0 6 -32 c3 -18 17 -43 32 -55 l25 -23 52 0 53 0 21 15 22 15 6 -10 6 -10
-46 -21 -46 -20 -32 6 c-156 34 -168 231 -18 275 31 9 67 3 98 -16z m383 11
l0 -15 -24 0 c-14 0 -38 -11 -53 -24 l-28 -24 -3 -101 -4 -101 -14 0 -14 0 0
135 0 135 15 0 c8 0 15 -7 15 -15 0 -17 25 -20 35 -5 3 5 20 14 38 19 18 5 33
10 35 10 1 1 2 -6 2 -14z m-4376 -113 c60 -138 62 -138 122 -1 44 101 59 127
69 118 2 -2 -23 -62 -55 -134 l-59 -130 -17 0 -17 0 -52 115 c-28 63 -54 123
-58 133 l-7 19 12 -4 c7 -3 34 -55 62 -116z" />
    <path d="M1765 1728 c-8 -25 -65 -299 -65 -313 l0 -15 39 0 39 0 31 26 31 25
20 66 20 65 0 67 0 67 -12 12 c-7 7 -31 12 -55 12 l-44 0 -4 -12z" />
    <path d="M2995 1718 c-35 -155 -45 -202 -45 -218 l0 -20 41 0 c56 0 78 14 100
65 l19 44 3 59 2 59 -14 16 -13 17 -44 0 -44 0 -5 -22z" />
    <path d="M3932 1508 c-34 -79 -62 -146 -62 -150 0 -5 39 -8 86 -8 l87 0 -7 93
c-3 50 -9 118 -12 150 l-7 57 -11 0 c-6 0 -39 -64 -74 -142z" />
    <path d="M959 411 c-16 -16 -29 -39 -29 -50 l0 -21 105 0 105 0 0 25 0 26 -26
24 -27 25 -49 0 -50 0 -29 -29z" />
    <path d="M2419 411 l-29 -29 0 -57 0 -57 29 -29 29 -29 52 0 52 0 29 29 29 29
0 57 0 57 -29 29 -29 29 -52 0 -52 0 -29 -29z" />
    <path d="M3078 309 l-18 -10 0 -34 0 -35 25 -16 25 -17 41 6 c22 3 49 13 60
23 l19 17 0 39 0 38 -67 0 c-38 0 -76 -5 -85 -11z" />
    <path d="M4419 411 c-16 -16 -29 -39 -29 -50 l0 -21 105 0 105 0 0 25 0 26
-26 24 -27 25 -49 0 -50 0 -29 -29z" />
  </g>
  <g transform="translate(0.000000,199.000000) scale(0.100000,-0.100000)" fill="#050a30" stroke="none">
    <path d="M235 1811 c-3 -5 -37 -157 -75 -338 -38 -180 -72 -338 -75 -350 l-5
-23 124 0 125 0 5 18 c10 31 146 674 146 688 l0 14 -119 0 -120 0 -6 -9z" />
    <path d="M596 1803 c-9 -29 -146 -679 -146 -691 l0 -12 53 0 53 0 49 230 c27
126 50 229 51 227 1 -1 13 -105 25 -230 l23 -227 81 0 82 0 118 215 c64 119
119 215 121 213 1 -2 -17 -97 -42 -212 -24 -115 -44 -211 -44 -213 0 -1 58 -3
128 -3 l128 0 76 353 c42 193 74 355 71 360 -2 4 -67 7 -144 7 l-139 0 -20
-32 c-11 -18 -59 -107 -107 -197 l-88 -165 -17 185 c-9 101 -17 190 -17 197
l-1 12 -144 0 -145 0 -5 -17z" />
    <path d="M1546 1812 c-3 -6 -38 -158 -76 -339 -38 -180 -72 -338 -75 -350 l-5
-23 124 0 125 0 10 38 c5 20 16 71 25 113 l17 76 87 6 c107 7 147 18 209 60
l48 32 29 59 30 58 0 72 0 71 -13 25 c-25 46 -54 70 -105 86 l-51 15 -186 6
-186 6 -7 -11z m312 -94 l12 -12 0 -57 0 -57 -20 -65 -20 -66 -31 -25 -31 -26
-29 0 c-16 0 -29 2 -29 5 0 7 61 289 65 303 l4 12 34 0 c18 0 38 -5 45 -12z" />
    <path d="M2215 1811 c-3 -5 -37 -157 -75 -338 -38 -180 -72 -338 -75 -350 l-5
-23 240 0 240 0 6 28 c3 15 8 35 11 45 l4 17 -116 0 -116 0 5 18 c2 9 12 53
21 97 9 44 19 88 22 98 l4 17 94 0 94 0 10 38 c6 20 11 40 11 45 0 4 -43 7
-96 7 l-96 0 6 23 c3 12 13 59 22 105 l17 82 113 0 c124 0 119 -2 129 58 l7
42 -236 0 -235 0 -6 -9z" />
    <path d="M2778 1814 c-3 -5 -38 -162 -77 -349 -40 -187 -74 -346 -76 -352 l-4
-13 127 0 128 0 28 143 c16 78 32 145 36 150 3 4 28 -60 54 -143 l47 -150 131
0 130 0 -5 13 c-121 296 -127 320 -87 337 16 7 45 30 64 51 l35 38 11 43 c26
95 -3 166 -83 207 l-47 23 -203 5 -204 6 -5 -9z m313 -100 l13 -16 -2 -50 c-4
-98 -46 -158 -111 -158 -39 0 -40 -20 14 218 l5 22 34 0 34 0 13 -16z" />
    <path d="M3487 1813 c-3 -5 -37 -161 -76 -348 -40 -187 -74 -346 -76 -352 l-4
-13 127 0 127 0 73 343 c40 188 72 350 72 360 l0 17 -119 0 c-66 0 -122 -3
-124 -7z" />
    <path d="M3971 1803 c-19 -37 -321 -692 -321 -697 0 -3 26 -6 58 -6 l57 0 36
83 36 82 101 3 101 3 5 -43 c3 -24 7 -61 8 -83 l3 -40 137 -3 137 -3 -5 33
c-4 32 -74 672 -74 683 0 3 -61 5 -135 5 l-134 0 -10 -17z m54 -345 l7 -98
-76 0 -75 0 51 113 c27 61 55 126 61 142 l11 30 7 -45 c3 -25 10 -89 14 -142z" />
    <path d="M4525 1808 c-3 -7 -38 -168 -78 -358 l-73 -345 235 -3 c257 -3 246
-5 256 56 l7 42 -111 0 -111 0 0 10 c0 5 27 136 60 290 33 154 60 289 60 300
l0 20 -120 0 -121 0 -4 -12z" />
    <path d="M2810 385 l0 -205 25 0 25 0 0 205 0 205 -25 0 -25 0 0 -205z" />
    <path d="M90 375 l0 -195 140 0 140 0 0 20 0 20 -115 0 -115 0 0 65 0 64 98 3
97 3 0 20 0 20 -97 3 -98 3 0 64 0 65 110 0 110 0 0 20 0 20 -135 0 -135 0 0
-195z" />
    <path d="M1810 505 l0 -35 -25 0 -25 0 0 -20 0 -20 25 0 25 0 0 -105 0 -105
20 -20 c37 -37 121 -36 128 3 l3 16 -48 3 -48 3 -3 102 -3 102 43 3 43 3 3 18
3 17 -45 0 -46 0 0 35 0 35 -25 0 -25 0 0 -35z" />
    <path d="M999 471 c-159 -50 -138 -270 28 -297 l40 -6 47 20 46 21 0 16 c0 23
-26 29 -52 11 l-22 -16 -43 0 -42 0 -25 23 c-13 12 -27 32 -31 45 l-6 22 122
0 122 0 -6 40 c-12 91 -95 147 -178 121z m105 -66 c14 -13 26 -31 26 -40 l0
-15 -95 0 -95 0 0 11 c0 6 13 24 29 40 l29 29 40 0 39 0 27 -25z" />
    <path d="M1455 473 c-10 -3 -29 -12 -42 -20 l-23 -15 0 16 0 16 -25 0 -25 0 0
-145 0 -145 24 0 24 0 4 101 3 101 28 24 28 24 39 0 39 0 20 -26 21 -27 0 -98
0 -99 25 0 25 0 0 95 0 96 -14 34 c-22 52 -92 84 -151 68z" />
    <path d="M2456 470 c-15 -5 -37 -17 -47 -26 l-19 -17 0 21 0 22 -20 0 -20 0 0
-200 0 -200 25 0 25 0 0 69 0 69 37 -19 c49 -25 79 -24 133 4 l44 22 18 35
c10 19 18 53 18 75 l0 40 -19 35 c-31 58 -111 90 -175 70z m115 -69 l29 -29 0
-47 0 -47 -29 -29 -29 -29 -42 0 -42 0 -29 29 -29 29 0 47 0 47 29 29 29 29
42 0 42 0 29 -29z" />
    <path d="M3105 471 c-63 -15 -83 -33 -66 -59 l8 -14 31 16 c17 9 49 16 70 16
l39 0 16 -18 c10 -10 17 -28 17 -39 l0 -20 -77 -5 -77 -5 -23 -27 c-74 -86 40
-183 150 -127 l37 19 0 -14 0 -14 20 0 20 0 0 114 0 113 -20 26 -21 26 -37 11
c-41 11 -44 11 -87 1z m115 -189 l0 -29 -18 -16 c-10 -9 -33 -20 -50 -23 l-32
-6 -25 16 -25 16 0 25 0 24 18 10 c9 6 43 11 75 11 l57 0 0 -28z" />
    <path d="M3566 470 c-15 -5 -37 -17 -47 -26 l-19 -17 0 21 0 22 -20 0 -20 0 0
-145 0 -145 25 0 25 0 0 100 0 101 25 24 24 25 41 0 40 0 20 -20 20 -20 0
-105 0 -105 25 0 25 0 0 108 0 107 -20 32 -19 32 -38 10 c-43 12 -48 12 -87 1z" />
    <path d="M4027 470 c-16 -5 -35 -14 -43 -21 l-14 -11 0 16 0 16 -25 0 -25 0 0
-145 0 -145 25 0 25 0 0 91 0 90 12 22 c17 33 39 46 79 47 l37 0 23 -19 24
-19 3 -106 4 -106 25 0 26 0 -5 109 -4 109 -17 26 c-29 43 -95 63 -150 46z" />
    <path d="M4459 471 c-159 -50 -138 -270 28 -297 l40 -6 47 20 46 21 0 16 c0
23 -26 29 -52 11 l-22 -16 -43 0 -42 0 -25 23 c-13 12 -27 32 -31 45 l-6 22
122 0 122 0 -6 40 c-12 91 -95 147 -178 121z m105 -66 c14 -13 26 -31 26 -40
l0 -15 -95 0 -95 0 0 11 c0 6 13 24 29 40 l29 29 40 0 39 0 27 -25z" />
    <path d="M4907 470 c-16 -5 -35 -14 -43 -21 l-14 -11 0 16 0 16 -25 0 -25 0 0
-145 0 -145 24 0 24 0 4 101 3 101 28 24 c15 13 39 24 53 24 l24 0 0 25 0 25
-12 -1 c-7 0 -26 -5 -41 -9z" />
    <path d="M490 458 c0 -7 27 -71 59 -143 l58 -130 27 0 27 0 60 132 c66 148 67
153 39 153 l-21 0 -34 -77 c-19 -43 -43 -95 -53 -117 l-18 -38 -50 113 -50
114 -22 3 -22 3 0 -13z" />
  </g>
  <g transform="translate(0.000000,199.000000) scale(0.100000,-0.100000)" fill="#ff1616" stroke="none">
    <path d="M522 873 l3 -48 1975 0 1975 0 3 48 3 47 -1981 0 -1981 0 3 -47z" />
  </g>
  <g transform="translate(0.000000,199.000000) scale(0.100000,-0.100000)" fill="#e7e7eb" stroke="none">
    <path d="M237 1813 c-3 -5 51 -8 119 -8 68 0 124 3 124 8 0 4 -54 7 -119 7
-66 0 -122 -3 -124 -7z" />
    <path d="M600 1813 c0 -5 65 -8 145 -8 80 0 145 3 145 8 0 4 -65 7 -145 7 -80
0 -145 -3 -145 -7z" />
    <path d="M1137 1813 c-3 -5 60 -7 140 -5 l146 3 -7 -18 -7 -18 12 12 c6 6 8
16 5 22 l-7 11 -139 0 c-76 0 -141 -3 -143 -7z" />
    <path d="M1547 1813 c-3 -5 41 -7 96 -5 184 4 204 8 55 10 -81 1 -149 -1 -151
-5z" />
    <path d="M2217 1813 c-3 -5 102 -8 234 -8 131 0 239 3 239 8 0 9 -467 9 -473
0z" />
    <path d="M2777 1813 c-3 -5 43 -7 101 -5 197 4 218 8 60 10 -86 1 -159 -1
-161 -5z" />
    <path d="M3487 1813 c-3 -5 53 -8 123 -8 70 0 126 3 123 8 -2 4 -58 7 -123 7
-65 0 -121 -3 -123 -7z" />
    <path d="M3977 1813 c-3 -5 57 -8 134 -8 76 0 139 3 139 8 0 4 -60 7 -134 7
-74 0 -137 -3 -139 -7z" />
    <path d="M4527 1813 c-3 -5 53 -8 123 -8 70 0 126 3 123 8 -2 4 -58 7 -123 7
-65 0 -121 -3 -123 -7z" />
    <path d="M130 465 c0 -41 3 -75 8 -75 4 0 7 34 7 75 0 41 -3 75 -7 75 -5 0 -8
-34 -8 -75z" />
    <path d="M130 285 c0 -41 3 -75 8 -75 4 0 7 34 7 75 0 41 -3 75 -7 75 -5 0 -8
-34 -8 -75z" />
    <path d="M4194 270 c0 -52 1 -74 3 -47 2 26 2 68 0 95 -2 26 -3 4 -3 -48z" />
    <path d="M3503 260 c0 -47 2 -66 4 -42 2 23 2 61 0 85 -2 23 -4 4 -4 -43z" />
    <path d="M2390 283 c0 -15 58 -73 73 -73 7 0 1 9 -12 19 -13 10 -32 29 -42 42
-10 13 -19 19 -19 12z" />
    <path d="M610 264 c0 -5 6 -19 14 -29 l13 -19 12 23 c7 13 10 25 7 28 -3 3 -8
-2 -12 -11 l-6 -17 -14 18 c-7 10 -14 13 -14 7z" />
    <path d="M1100 230 c-28 -22 -15 -27 14 -5 10 8 23 12 28 9 l9 -6 -13 -16 -13
-15 15 5 c8 2 15 13 15 24 0 26 -25 28 -55 4z" />
    <path d="M4560 230 c-28 -22 -15 -27 14 -5 10 8 23 12 28 9 l9 -6 -13 -16 -13
-15 15 5 c8 2 15 13 15 24 0 26 -25 28 -55 4z" />
    <path d="M2388 150 c-2 -44 0 -80 5 -80 4 0 7 29 7 64 0 35 3 71 6 80 l6 16
-10 0 -10 0 -4 -80z" />
  </g>
  <g transform="translate(0.000000,199.000000) scale(0.100000,-0.100000)" fill="#fdedee" stroke="none">
    <path d="M527 828 c6 -10 3940 -10 3946 0 3 4 -885 7 -1973 7 -1088 0 -1976
-3 -1973 -7z" />
    <path d="M3684 270 c0 -52 1 -74 3 -47 2 26 2 68 0 95 -2 26 -3 4 -3 -48z" />
  </g>
  <g transform="translate(0.000000,199.000000) scale(0.100000,-0.100000)" fill="#ff2727" stroke="none">
    <path d="M520 913 c0 -5 891 -8 1980 -8 1089 0 1980 3 1980 8 0 4 -891 7
-1980 7 -1089 0 -1980 -3 -1980 -7z" />
  </g>
  <g transform="translate(0.000000,199.000000) scale(0.100000,-0.100000)" fill="#0c1136" stroke="none">
    <path d="M2390 1508 c0 -5 43 -8 95 -8 l94 0 -5 -17 -6 -18 11 15 c19 26 13
29 -89 32 -55 2 -100 0 -100 -4z" />
    <path d="M3877 1358 c2 -5 40 -8 84 -8 43 0 79 3 79 8 0 4 -38 7 -84 7 -46 0
-82 -3 -79 -7z" />
    <path d="M92 373 c2 -200 6 -177 10 65 2 72 0 132 -4 132 -5 0 -7 -89 -6 -197z" />
    <path d="M240 540 l-115 -6 118 -2 117 -2 0 10 c0 6 -1 9 -2 8 -2 -1 -55 -5
-118 -8z" />
    <path d="M2418 448 c-21 -12 -38 -26 -38 -30 0 -14 14 -8 50 22 41 35 38 37
-12 8z" />
    <path d="M3993 453 c-18 -9 -33 -23 -33 -32 l0 -14 28 24 c15 13 31 27 37 31
14 12 4 9 -32 -9z" />
    <path d="M2419 411 c-16 -16 -29 -35 -29 -43 0 -7 8 -1 17 13 9 14 28 33 42
42 14 9 20 17 13 17 -8 0 -27 -13 -43 -29z" />
    <path d="M2390 282 c0 -17 55 -72 72 -72 7 0 1 8 -13 17 -14 9 -33 28 -42 42
-9 14 -17 20 -17 13z" />
    <path d="M3198 233 l-13 -17 18 7 c9 3 17 4 17 0 0 -3 -8 -12 -17 -19 -10 -7
-13 -13 -8 -13 6 0 18 6 29 14 l18 14 -15 15 -15 15 -14 -16z" />
  </g>
  <g transform="translate(0.000000,199.000000) scale(0.100000,-0.100000)" fill="#787a8f" stroke="none">
    <path d="M2812 383 c2 -209 6 -185 10 70 2 75 0 137 -4 137 -5 0 -7 -93 -6
-207z" />
    <path d="M130 563 c108 -7 230 -7 230 0 0 4 -62 6 -137 5 -76 -1 -118 -3 -93
-5z" />
    <path d="M3924 325 c0 -82 2 -115 3 -72 2 43 2 110 0 150 -1 40 -3 5 -3 -78z" />
    <path d="M1574 270 c0 -52 1 -74 3 -47 2 26 2 68 0 95 -2 26 -3 4 -3 -48z" />
    <path d="M3148 313 c18 -2 45 -2 60 0 15 2 0 4 -33 4 -33 0 -45 -2 -27 -4z" />
    <path d="M165 213 c96 -7 205 -7 205 0 0 4 -55 6 -122 5 -68 -1 -105 -3 -83
-5z" />
  </g>
  <g transform="translate(0.000000,199.000000) scale(0.100000,-0.100000)" fill="#3a3e5b" stroke="none">
    <path d="M2352 278 c-1 -108 1 -199 6 -201 4 -3 6 54 4 126 -4 247 -8 272 -10
75z" />
    <path d="M3464 325 c0 -82 2 -115 3 -72 2 43 2 110 0 150 -1 40 -3 5 -3 -78z" />
    <path d="M3264 275 c0 -55 1 -76 3 -47 2 29 2 74 0 100 -2 26 -3 2 -3 -53z" />
    <path d="M4154 270 c0 -52 1 -74 3 -47 2 26 2 68 0 95 -2 26 -3 4 -3 -48z" />
  </g>
  <g transform="translate(0.000000,199.000000) scale(0.100000,-0.100000)" fill="#cecfd6" stroke="none">
    <path d="M3826 1263 l-7 -18 12 13 13 12 97 0 98 0 4 -12 4 -13 -1 15 -1 15
-106 3 -107 3 -6 -18z" />
    <path d="M930 348 c0 -5 47 -8 105 -8 58 0 105 3 105 8 0 4 -47 7 -105 7 -58
0 -105 -3 -105 -7z" />
    <path d="M4390 348 c0 -5 47 -8 105 -8 58 0 105 3 105 8 0 4 -47 7 -105 7 -58
0 -105 -3 -105 -7z" />
  </g>
  <g transform="translate(0.000000,199.000000) scale(0.100000,-0.100000)" fill="#b2b4bf" stroke="none">
    <path d="M1344 325 c0 -82 2 -115 3 -72 2 43 2 110 0 150 -1 40 -3 5 -3 -78z" />
    <path d="M4804 325 c0 -82 2 -115 3 -72 2 43 2 110 0 150 -1 40 -3 5 -3 -78z" />
    <path d="M178 393 c28 -2 76 -2 105 0 28 2 5 3 -53 3 -58 0 -81 -1 -52 -3z" />
  </g>
  <g transform="translate(0.000000,199.000000) scale(0.100000,-0.100000)" fill="#1a1e41" stroke="none" />
  <g transform="translate(0.000000,199.000000) scale(0.100000,-0.100000)" fill="#bdbfc8" stroke="none">
    <path d="M1854 345 c0 -55 1 -76 3 -47 2 29 2 74 0 100 -2 26 -3 2 -3 -53z" />
  </g>
  <g transform="translate(0.000000,199.000000) scale(0.100000,-0.100000)" fill="#a6a8b5" stroke="none">
    <path d="M2850 382 l5 -207 3 199 c1 110 -1 203 -5 207 -5 5 -6 -85 -3 -199z" />
    <path d="M1614 265 c0 -50 1 -71 3 -48 2 23 2 64 0 90 -2 26 -3 8 -3 -42z" />
    <path d="M3964 265 c0 -50 1 -71 3 -48 2 23 2 64 0 90 -2 26 -3 8 -3 -42z" />
  </g>
  <g transform="translate(0.000000,199.000000) scale(0.100000,-0.100000)" fill="#2a2e4f" stroke="none">
    <path d="M3724 265 c0 -50 1 -71 3 -48 2 23 2 64 0 90 -2 26 -3 8 -3 -42z" />
  </g>
  <g transform="translate(0.000000,199.000000) scale(0.100000,-0.100000)" fill="#dcdce2" stroke="none">
    <path d="M188 353 c29 -2 74 -2 100 0 26 2 2 3 -53 3 -55 0 -76 -1 -47 -3z" />
  </g>
  <g transform="translate(0.000000,199.000000) scale(0.100000,-0.100000)" fill="#85879a" stroke="none" />
  <g transform="translate(0.000000,199.000000) scale(0.100000,-0.100000)" fill="#9c9ead" stroke="none">
    <path d="M2498 1723 c34 -2 88 -2 120 0 31 2 3 3 -63 3 -66 0 -92 -1 -57 -3z" />
    <path d="M4693 1193 c31 -2 83 -2 115 0 31 2 5 3 -58 3 -63 0 -89 -1 -57 -3z" />
  </g>
  <g transform="translate(0.000000,199.000000) scale(0.100000,-0.100000)" fill="#4f526d" stroke="none">
    <path d="M1170 332 l0 -12 -117 -2 -118 -2 114 -3 114 -4 10 10 c6 6 8 14 4
18 -4 3 -7 1 -7 -5z" />
    <path d="M4630 332 l0 -12 -117 -2 -118 -2 114 -3 114 -4 10 10 c6 6 8 14 4
18 -4 3 -7 1 -7 -5z" />
  </g>
  <g transform="translate(0.000000,199.000000) scale(0.100000,-0.100000)" fill="#63667e" stroke="none">
    <path d="M2329 1187 c4 -4 57 -6 117 -5 l109 3 -117 5 c-64 3 -114 1 -109 -3z" />
    <path d="M1814 345 c0 -55 1 -76 3 -47 2 29 2 74 0 100 -2 26 -3 2 -3 -53z" />
  </g>
  <g transform="translate(0.000000,199.000000) scale(0.100000,-0.100000)" fill="#9294a5" stroke="none">
    <path d="M2418 1423 c29 -2 74 -2 100 0 26 2 2 3 -53 3 -55 0 -76 -1 -47 -3z" />
  </g>
  <g transform="translate(0.000000,199.000000) scale(0.100000,-0.100000)" fill="#6c6f85" stroke="none">
    <path d="M1383 255 c0 -44 2 -61 4 -37 2 23 2 59 0 80 -2 20 -4 1 -4 -43z" />
    <path d="M4843 255 c0 -44 2 -61 4 -37 2 23 2 59 0 80 -2 20 -4 1 -4 -43z" />
  </g>
  <g transform="translate(0.000000,199.000000) scale(0.100000,-0.100000)" fill="#454865" stroke="none" />
  <g transform="translate(0.000000,199.000000) scale(0.100000,-0.100000)" fill="#585c75" stroke="none" />
  <g transform="translate(0.000000,199.000000) scale(0.100000,-0.100000)" fill="#ffa9a9" stroke="none" />
</svg>